# xmcd
# 
# Track frame offsets:
#     150
#     26415
#     47894
#     69446
#     92537
#     120493
#     138160
#     175059
#     215336
#     246163
#     269863
#     297939
# 
# Disc length: 4333
# 
# Revision: 0
# Processed by: cddbd v1.5.2PL0 Copyright (c) Steve Scherf et al.
# Submitted via: fre:ac v1.0.27
# 
DISCID=ad10eb0c
DTITLE=Mylène Farmer - En concert
DYEAR=1989
DGENRE=Pop
TTITLE0=Prologue
TTITLE1=L'horloge
TTITLE2=Plus grandier
TTITLE3=Sans logique
TTITLE4=Maman à tort
TTITLE5=Déshabillez-moi
TTITLE6=Puisque
TTITLE7=Pourvu qu'elles soient douces
TTITLE8=Allan
TTITLE9=A quoi je sers...
TTITLE10=Sans contrefaçon
TTITLE11=Jardin de Vienne
EXTD=
EXTT0=
EXTT1=
EXTT2=
EXTT3=
EXTT4=
EXTT5=
EXTT6=
EXTT7=
EXTT8=
EXTT9=
EXTT10=
EXTT11=
PLAYORDER=
